<?xml version="1.0" encoding="utf-8"?>
<!-- Generator: Adobe Illustrator 23.1.0, SVG Export Plug-In . SVG Version: 6.00 Build 0)  -->
<svg version="1.1" xmlns="http://www.w3.org/2000/svg" xmlns:xlink="http://www.w3.org/1999/xlink" x="0px" y="0px"
	 viewBox="0 0 424.2 694.1" style="enable-background:new 0 0 424.2 694.1;" xml:space="preserve">
<style type="text/css">
	.st0{fill:#101820;}
	.st1{fill:#2B858C;}
	.st2{fill:#F2F8FF;}
</style>
<g id="Capa_1">
	<path class="st0" d="M215.7,610c0,0,23.4,0.4,60.5-18s41.4-23.4,54.4-36.4c13-13,20.9-24.8,21.2-32c0.4-7.2,0.4-13,0.4-13l7.9-24.5
		l-1.1-7.6c0,0,7.2,2.9,8.3,1.8c1.1-1.1,8.3-17.6,8.3-17.6s2.9-1.8-0.7-7.9c-3.6-6.1-6.1-7.6-6.1-7.6l1.8-10.8c0,0,5.8,4.3,10.1-1.8
		s12.2-27,16.6-42.5c4.3-15.5,3.8-40.6,3.8-40.6l-10.4-2.9l1.3-19.3c0,0,16.1-55,16.1-69.7c0-14.8,9.2-66.4,9.2-80.5
		c0-14,2.6-20.8-2.1-28.7s-6-11.9-6-11.9s-4.9-23.9-17.5-44.8s-13.9-20.3-13.9-20.3s-3.4-2.7-5.2-1.3c-1.8,1.4-7.7,8.9-7.7,8.9
		l-4.3-4.7c0,0-6.5-16.4-6.1-17.5c0.4-1.1-3-3.8-3-3.8L324,35.8c0,0-5.1,1.1-5.1,3.3s-5.4,2.5-5.4,2.5s-10.7-3.3-14.3-6.5
		c-3.6-3.2-9.7-9.7-9.7-9.7l0.4-10.4c0,0-28.1-11.9-78.5-11.9s-74,12.1-74,12.1l1.4,10.4L114.3,41l-11.8-4.1L78.8,54l-6.2,6.4l-5,7
		l-2.9,11.4l-1.4,1.3L53,70.9l-3.6,2.3c0,0-17.9,23.2-25.1,46.7s-11.8,25-11.8,25l-2.6,16.3l3.1,33l2.2,10.4l2.9,37.8l3.2,60.1
		c0,0,13,37.6,14.9,41c1.9,3.4,0.2,5.4,0.2,5.4L24,351.2l21.9,78c0,0,0.5,5.5,3.4,6s5.6,0.9,5.6,0.9l3.1,12.1c0,0-6.5,4.3-6.5,5.5
		c0,1.2,0.7,11.8,2.4,16.6c1.7,4.8,4.8,9.6,4.8,9.6s4.1,1,4.8,1s2.6-0.5,2.6-0.5s11.5,49.7,54,82.8s61.7,46.3,79.4,47.3
		c17.8,1-7.7-9.6-7.7-9.6s-81.1-41.3-102.7-84.5c-21.6-43.2-35-104.6-35-104.6S38,383,41.3,347.4s12.5-69.6,23-75.4
		c10.6-5.8,51.4-27.4,152.6-27.4s130.8,16.1,137.3,21.8s17.3,11.9,22,41.8c4.7,29.9,9.7,55.8-0.4,89.6
		c-10.1,33.8-28.1,106.6-41.4,132.1c-13.3,25.6-53.3,54.7-80.3,64.1C227.2,603.5,205.2,605.3,215.7,610z"/>
</g>
<g id="Capa_2">
	<path class="st1" d="M216.4,103.5c0,0-32.4-1.4-52.2,2.5s-38.9,11.9-51.8,21.6s-23.4,29.5-22,39.6c1.4,10.1,8.3,37.8,44.3,50
		c36,12.2,106.2,7.6,106.2,7.6s55.8-1.8,78.1-27.4s14.6-43,14.6-43s-12.2-29.3-41.5-39.4S250.1,104.6,216.4,103.5z"/>
	<path class="st1" d="M319.2,225.2c0,0-0.5-3,1.8-5.8c2.3-2.8,13.1-10.3,17.2-15.1c4.1-4.8,11.5-23,14.2-24.5
		c2.6-1.4,11.2-1.4,14.8,0.5s14.8,4.7,16.9,10.8s6.1,23.2-4.1,37.2c-10.2,14-13.6,21.6-20,20.8c-6.5-0.8-40.3-14.8-40.8-23.5
		C318.6,216.8,319.2,225.2,319.2,225.2z"/>
	<path class="st1" d="M369.4,450.5c0,0,6.1,5.4,6.1,9.4S374.4,479,369,479s-7.6,0.4-7.6,0.4L369.4,450.5z"/>
	<path class="st1" d="M372.3,436.8c0,0,17.6-55.8,17.6-68c0-12.2,1.1-19.4,1.1-19.4s9.7-2.5,12.6,0.7c2.9,3.2,0.7,15.1-0.7,22.7
		s-15.5,56.2-19.4,59.8C379.5,436.1,374.1,439,372.3,436.8z"/>
	<path class="st1" d="M389.9,345.4c0,0,4.3,1.4,9.4-3.6c5-5,7.2-10.1,9.4-20.9c2.2-10.8,2.5-49,2.5-49s1.4-36.4,4.7-58
		s5.8-43.6,4-53.6c-1.8-10.1-6.5-19.1-9.7-21.6c-3.2-2.5-6.8-5-12.6-5c-5.8,0-9,3.6-9,3.6s10.1,20.5,9.7,33.1
		c-0.4,12.6,1.8,23.8-1.8,31c-3.6,7.2-17.6,43.2-18.7,50.4c-1.1,7.2,2.2,29.5,4.7,40.7C384.9,303.6,389.9,345.4,389.9,345.4z"/>
	<path class="st1" d="M329.1,121.8c0,0,7,16.3,11,21.4c4.1,5,9.4,14.6,10.1,17.8c0.7,3.1,1.4,5.3,4.8,7.2s20.2,3.4,23.3,3.8
		s10.6-2.6,11.5-6.7c1-4.1,2.2-10.1,1.2-15.1c-1-5-2.9-19.9-7.4-24s-14.2-16.8-37.7-15.4C322.4,112.2,329.1,121.8,329.1,121.8z"/>
	<path class="st1" d="M364.6,80.8c0,0,6.2-11,9.4-10.6c3.1,0.5,13,10.3,18.2,20.4s12.2,25.7,15.1,32.6c2.9,7,6,17.3,6,17.3
		s-6.5-0.7-8.2-5.5c-1.7-4.8-6-14.9-16.8-22.3c-10.8-7.4-13.2-7.7-13.2-7.7L364.6,80.8z"/>
	<path class="st1" d="M361.7,78.2c0,0,2.8-2.4,1.2-6.7c-1.6-4.3-7.8-11.3-7.8-11.3s1.2-3-0.8-5c-2-2-27.2-19.9-29.2-19.9
		c-1.9,0-12.5,3.8-12.5,6.1s33.2,22.7,38.6,27.1C356.7,72.9,361.7,78.2,361.7,78.2z"/>
	<path class="st1" d="M323.7,89.4c0,0-1.4-22.7-10.1-34.9c-8.6-12.2-18.7-24.1-23-25.9c-4.3-1.8-31-11.9-43.9-8.6
		S231.9,30,221.4,31.8s-19.1,1.4-27-2.9s-6.8-6.1-14-7.6c-7.2-1.4-40,5.4-41.8,6.5s-15.2,10.4-22,22.9s-15.8,27.4-14.9,33.6
		c1,6.2,4.3,4.3,4.3,4.3s54.7-3.8,114.2-3.8S323.7,89.4,323.7,89.4z"/>
	<path class="st1" d="M138,26.3c0,0-3.6-10.3-1.7-12s27.4-12,73.2-12s79.7,11.5,79.7,11.5s1.4,2.9,1.2,6.5s-1.2,5.3-1.2,5.3
		S262.8,16,212.7,16S138,26.3,138,26.3z"/>
	<path class="st1" d="M108.1,224.6c0,0,0.5-3-1.8-5.8c-2.3-2.8-13.1-10.3-17.2-15.1c-4.1-4.8-11.5-23-14.2-24.5s-11.2-1.4-14.8,0.5
		c-3.6,1.9-14.8,4.7-16.9,10.8c-2.2,6.1-6.1,23.2,4.1,37.2c10.2,14,13.6,21.6,20,20.8c6.5-0.8,40.3-14.8,40.8-23.5
		C108.7,216.2,108.1,224.6,108.1,224.6z"/>
	<path class="st1" d="M57.9,449.9c0,0-6.1,5.4-6.1,9.4s1.1,19.1,6.5,19.1s7.6,0.4,7.6,0.4L57.9,449.9z"/>
	<path class="st1" d="M55,436.2c0,0-17.6-55.8-17.6-68c0-12.2-1.1-19.4-1.1-19.4s-9.7-2.5-12.6,0.7c-2.9,3.2-0.7,15.1,0.7,22.7
		c1.4,7.6,15.5,56.2,19.4,59.8C47.8,435.5,53.2,438.4,55,436.2z"/>
	<path class="st1" d="M37.4,344.8c0,0-4.3,1.4-9.4-3.6c-5-5-7.2-10.1-9.4-20.9c-2.2-10.8-2.5-49-2.5-49s-1.4-36.4-4.7-58
		s-5.8-43.6-4-53.6s6.5-19.1,9.7-21.6c3.2-2.5,6.8-5,12.6-5s9,3.6,9,3.6s-10.1,20.5-9.7,33.1c0.4,12.6-1.8,23.8,1.8,31
		s17.6,43.2,18.7,50.4c1.1,7.2-2.2,29.5-4.7,40.7S37.4,344.8,37.4,344.8z"/>
	<path class="st1" d="M98.2,121.2c0,0-7,16.3-11,21.4c-4.1,5-9.4,14.6-10.1,17.8c-0.7,3.1-1.4,5.3-4.8,7.2s-20.2,3.4-23.3,3.8
		c-3.1,0.5-10.6-2.6-11.5-6.7c-1-4.1-2.2-10.1-1.2-15.1c1-5,2.9-19.9,7.4-24c4.6-4.1,14.2-16.8,37.7-15.4
		C105,111.6,98.2,121.2,98.2,121.2z"/>
	<path class="st1" d="M62.7,80.2c0,0-6.2-11-9.4-10.6C50.2,70.1,40.4,80,35.1,90S22.9,115.7,20,122.7S14,140,14,140s6.5-0.7,8.2-5.5
		s6-14.9,16.8-22.3c10.8-7.4,13.2-7.7,13.2-7.7L62.7,80.2z"/>
	<path class="st1" d="M65.6,77.6c0,0-2.8-2.4-1.2-6.7c1.6-4.3,7.8-11.3,7.8-11.3s-1.2-3,0.8-5s27.2-19.9,29.2-19.9
		s12.5,3.8,12.5,6.1c0,2.3-33.2,22.7-38.6,27.1C70.6,72.3,65.6,77.6,65.6,77.6z"/>
</g>
<g id="Capa_4">
	<g>
		<path class="st2" d="M140.9,139.2c6.6-7.8,15.6-13.2,27.5-16.8c12-3.6,26.3-5.4,43.7-5.4c16.8,0,31.1,1.8,43.1,5.4
			c12,4.2,20.9,9.6,27.5,16.8c6.6,7.2,9.6,16.2,9.6,26.3c0,10.2-3,19.1-9.6,26.3c-6.6,7.8-15.6,13.2-27.5,16.8
			c-12,3.6-26.3,5.4-43.1,5.4c-17.4,0-31.7-1.8-43.7-5.4c-12-4.2-20.9-9.6-27.5-16.8s-9.6-16.2-9.6-26.3
			C131.3,155.4,134.3,146.4,140.9,139.2z M161.9,195.5l85-67l12,6l-86.2,67L161.9,195.5z M154.1,181.7c5.4,4.2,12.6,7.8,22.1,10.2
			c9.6,2.4,21.5,3.6,35.3,3.6c13.2,0,24.5-1.2,34.1-3.6c10.2-2.4,17.4-5.4,22.7-10.2c5.4-4.2,7.8-9.6,7.8-16.2
			c0-6-2.4-11.4-7.8-16.2c-5.4-4.2-13.2-7.8-22.7-10.2c-9.6-2.4-20.9-3.6-34.1-3.6c-13.8,0-25.7,1.2-35.3,3.6
			c-9.6,2.4-17.4,5.4-22.1,10.2c-5.4,4.2-7.8,9.6-7.8,16.2C146.3,172.1,149.3,177.5,154.1,181.7z"/>
	</g>
	<g>
		<g>
			<g>
				<path class="st0" d="M334.9,464c-0.5,1.2-1.1,2.3-1.7,3.4c-0.1,0-0.2,0.1-0.2,0.2c-2.5,3.7-5.8,6.8-9.5,9.3
					c-0.9,0.6-1.9,1.3-2.9,1.9c-2.4,0.2-4.8,0.1-7.2-0.2c-5.1-1.2-10-2.7-14.9-4.8c-2.4-1-4.7-2.2-7.1-3.2
					c-11.9-7.3-24.5-17-36.2-21.3c-15.2-5.7-25.2-3.4-31.8-0.2c-2.1,0.3-4.4,1.5-6.3,2.5c-1.2,0.7-2.4,1.4-3.5,2.2
					c-0.1,0.1-0.2,0.1-0.3,0.2c-1.9-2.4-5.8-3.8-8.2-5c-1.5-0.8-2.8-1.2-4.4-1.2c-1.2-0.7-2.4-1.2-3.9-1.4c-1.7-0.3-3.5-0.3-5.2,0.1
					c-6.7-0.5-14.8,0.7-24,5.3c-12,6-24.9,16.6-37,23.3c-2.1,0.5-4.1,1.1-6.1,1.8c-2,0.7-3.8,1.8-5.7,2.9c-1.2,0.1-2.4,0.2-3.7,0.2
					c-3.2,0.1-6-0.8-9.1-1.2c-0.1,0-0.2,0-0.3,0c-1.6-0.8-3.1-1.6-4.5-2.7c-1.4-1-2.6-2.1-4-3.1c-0.7-0.5-1.4-1-2.1-1.6
					c-1.4-2-2.6-4.4-3.9-7.1c0,0-7.7,26.1,20.8,33.1c7.7,1.9,14.9,2.4,21.8,1.9c0.7,0.1,1.4,0,2,0c3,0,6-0.4,9-1
					c3-0.6,5.8-1.4,8.7-2.5c1.1-0.3,2.2-0.7,3.3-1c5.2-1.7,10.4-3.5,15.5-5.6c1.5-0.4,2.9-0.9,4.3-1.5c1.7-0.8,3.3-1.7,4.9-2.6
					c0.6-0.3,1.2-0.6,1.8-0.9c3.5-1,6.9-2.4,10.2-3.9c0.8-0.2,1.6-0.3,2.4-0.5c3.6-0.6,6.9-1.7,10.2-3.1c1.2-0.5,2.3-0.9,3.5-1.4
					c0.5,0,0.9-0.1,1.4-0.1c0.5,0,1.1,0.1,1.6,0.1c0.3,0,0.5,0,0.8,0c0.4,0.1,0.7,0.1,1.1,0.2c2.9,0.4,6,0.7,9,0.8
					c2.1,1.2,4.3,2.1,6.5,3c2.9,1.2,5.8,2,8.8,2.5c2.3,1.3,4.6,2.5,6.9,3.6c2.8,1.3,5.7,2.6,8.7,3.5c2.3,1.2,5,2,7.5,2.7
					c0.4,0.1,0.7,0.2,1.1,0.3c2.3,1.1,4.8,1.9,7.1,2.7c3.3,1.1,6.7,1.8,10.1,2.1c0.3,0,0.5,0,0.8,0c0.7,0.2,1.5,0.3,2.2,0.5
					c13,2.9,22.7,3,30.1,1.5c0,0,0,0,0,0c3.9,0,7.6-1,10.6-3.6c0.7-0.6,1.2-1.2,1.7-1.8c1.3-0.8,2.6-1.7,3.7-2.8
					c1.4-1.4,2.2-3,2.5-4.6C337.2,475.8,334.9,464,334.9,464z M101.4,477.6c-1.5-1.1-3-2.5-4.4-4.3c1,0.8,2.1,1.5,3.1,2.2
					c1.3,1,2.7,1.9,4.1,2.7c-0.6-0.1-1.2-0.1-1.7-0.3C102.1,477.9,101.8,477.8,101.4,477.6z M103.2,478.8c0.8,0.1,1.5,0.1,2.3,0.3
					c0.1,0,0.2,0,0.3,0.1c1.1,0.5,2.3,1,3.5,1.4c0.4,0.2,0.8,0.3,1.2,0.4C107.9,480.7,105.5,480.1,103.2,478.8z M112.7,481
					c-0.8-0.2-1.5-0.5-2.2-0.7c-0.6-0.2-1.2-0.4-1.8-0.6c1.8,0.4,3.6,0.7,5.5,0.8c1.1,0,2.3,0,3.4-0.1
					C115.9,480.7,114.3,480.9,112.7,481z M120.7,479.4c-0.1,0-0.1,0-0.2,0c1.4-0.8,2.8-1.6,4.3-2.1c1.1-0.4,2.3-0.8,3.5-1.1
					C125.7,477.5,123.2,478.6,120.7,479.4z M146,497.2c-0.5,0.1-1,0.2-1.6,0.3c1.3-0.3,2.5-0.6,3.7-0.9c0,0,0.1,0,0.1,0
					C147.5,496.8,146.7,497,146,497.2z M176.1,486.8c-1.4,0.6-2.8,1.2-4.2,1.7c-0.5,0.1-1.1,0.3-1.6,0.4c2.7-1.2,5.4-2.4,8-3.6
					c0.7-0.2,1.4-0.3,2-0.5C179,485.5,177.6,486.1,176.1,486.8z M215.9,453c1.4-0.9,2.9-1.8,4.5-2.4c-3.1,1.9-5.2,3.6-6.6,4.1
					c-0.1-0.1-0.1-0.2-0.1-0.3C214.4,453.9,215.2,453.5,215.9,453z M204.8,449.5c2.2,1.1,6.2,2.5,8,4.8c0,0-0.1,0.1-0.1,0.1
					c-0.6-0.5-1.9-1.5-3.7-2.6c0-0.2-0.1-0.3-0.3-0.3h-0.2c-1.7-1-3.8-2.1-6.4-3c0,0,0,0-0.1,0C203,448.7,203.9,449,204.8,449.5z
					 M195.2,446.7c1.4,0.1,2.9,0.3,4.2,0.9c-1.3-0.4-2.8-0.7-4.3-0.9C195.1,446.7,195.2,446.7,195.2,446.7z M195.8,477.9
					c-1.4,0.7-2.8,1.3-4.3,1.8c-0.3,0.1-0.6,0.2-1,0.2c0.4-0.2,0.7-0.4,1.1-0.7C193,478.8,194.4,478.3,195.8,477.9z M206.6,475.7
					c-3.1,1.3-6.3,2.5-9.6,3.1c-0.2,0.1-0.4,0.1-0.7,0.1c1.3-0.6,2.5-1.1,3.8-1.6c1-0.4,2-0.8,3-1.3c1.4-0.3,2.9-0.5,4.3-0.7
					C207.2,475.4,206.9,475.5,206.6,475.7z M228.7,477.9c-1.2-0.5-2.4-1.1-3.5-1.7c0.3,0,0.6,0,0.9,0c1.2,0.3,2.3,0.6,3.4,0.9
					c1,0.5,2,1,3,1.6c1.1,0.6,2.3,1.2,3.5,1.7C233.4,479.7,231,478.9,228.7,477.9z M246.6,485c-1.3-0.6-2.5-1.2-3.8-1.9
					c0.5,0.2,1,0.3,1.5,0.5c2.1,1.1,4.4,2.2,7,3.3c0.2,0.1,0.3,0.2,0.5,0.3C250,486.6,248.3,485.8,246.6,485z M272,494.4
					c-0.8-0.2-1.7-0.5-2.5-0.8c1.8,0.5,3.6,1,5.6,1.6C274,495,273,494.7,272,494.4z M300.7,475.7c-1.2-0.6-2.5-1.3-3.8-1.9
					c0.4,0.2,0.8,0.4,1.1,0.5c2.7,1.2,5.4,2.2,8.2,3.1C304.4,476.9,302.6,476.3,300.7,475.7z M305.8,477.9c0.8,0.2,1.5,0.4,2.3,0.5
					c1.6,0.3,3.2,0.6,4.9,0.7c0.5,0.1,1,0.3,1.6,0.4c0.2,0,0.3-0.1,0.4-0.2c1.5,0.1,3,0.1,4.4,0.1c-0.1,0-0.2,0.1-0.3,0.1
					C314.9,480.3,310.5,479.6,305.8,477.9z M317.2,497.5c2.1-0.7,4-1.6,5.7-2.5C321.2,496.3,319.2,497.1,317.2,497.5z M322.4,478.5
					c-0.1,0-0.2,0-0.3,0.1c0.4-0.3,0.9-0.5,1.3-0.8c2.7-1.7,5.1-3.8,7.2-6.1C328.1,475,325.3,477.2,322.4,478.5z"/>
				<g>
					<path class="st0" d="M208.3,471c0.1,1.5,0.2,3,0.3,4.5c0.3-0.1,0.6-0.2,0.9-0.4C208.9,473.9,208.5,472.4,208.3,471z"/>
					<path class="st0" d="M210.6,452.8c-0.4,1.3-0.6,2.6-0.8,3.9c0.3-1.3,0.7-2.5,1.1-3.7C210.8,453,210.7,452.9,210.6,452.8z"/>
				</g>
			</g>
		</g>
		<g>
			<path class="st0" d="M236.1,552.6c-2.7-5.6-5.6-12.6-8.8-21.4h-2C227.4,539,231.2,546.3,236.1,552.6z"/>
			<path class="st0" d="M236.2,557.1c2.5,3.6,5.3,7.1,8.4,10.3c-1.7-2.3-3.5-5.1-5.4-8.5c-5.2-5.4-9.4-11.6-12.4-18.4
				C228.5,546.4,232.8,552.1,236.2,557.1z"/>
			<path class="st0" d="M185.6,561.9c5.3-7.2,9.1-15.6,11.3-24.4C192.7,548.5,189,556.2,185.6,561.9z"/>
			<g>
				<g>
					<path class="st0" d="M161.8,581.7c-0.3,0-0.5,0.1-0.5,0.5c0,3.7-1,7.3-1,11c0,4.7,0.2,9.3,0.6,14c0.1,0.8,0.2,1.6,0.2,2.4
						c-0.6-4.5-1.2-9.1-1.5-13.6c-0.1-2-0.1-4-0.2-5.9c-0.1-1.9-0.2-4.5,0.7-6.2c0.3-0.6-0.5-1-0.9-0.5c-1.5,2.9-0.8,7-0.7,10.1
						c0.2,4.8,0.6,9.7,1.3,14.5c0.7,5.2,1.6,10.4,2.8,15.5C160.8,609.5,160.5,595.5,161.8,581.7z"/>
					<path class="st0" d="M164.7,635.4c-0.5-2.6-1-5.2-1.4-7.8C163.5,630.2,164,632.8,164.7,635.4z"/>
					<path class="st0" d="M244.5,671.6c-0.1,0.2-0.2,0.4-0.4,0.7c-3,3.4-6.4,6.4-10.1,9c1.4-1.2,2.7-2.5,4-3.9
						c-0.3,0.2-0.5,0.5-0.8,0.7c-4.9,3.9-10.3,7.2-16,9.9c-1.1,0.5-2.3,1.3-3.6,2c4.5-0.8,8.8-2.8,12.9-5.8c0.1,0,0.2-0.1,0.3-0.1
						c0.1,0.2,0.4,0.3,0.6,0.1c0.8-0.5,1.6-1,2.5-1.6c2.2-1.2,4.4-2.5,6.4-4.1c2-1.7,3.7-3.7,5-6c2-2.3,3.8-4.8,5.4-7.5
						C248.7,667.2,246.7,669.5,244.5,671.6z"/>
					<path class="st0" d="M265.7,606.5c-0.1-4.1-0.8-8.1-1.6-12.1c0-0.6,0-1.3,0-1.9c-0.2-2.6-0.5-5.2-0.7-7.8c-0.6-1-1.2-2-2-2.9
						c-3.9-2-7.6-4.3-11-7c-6.3-4.9-11.7-10.8-16.1-17.4c-4.2-6.3-9.6-13.4-9.9-21.4c0-0.4,0.2-0.6,0.4-0.7c-0.5-1.3-0.8-2.7-1.2-4
						h-24.1c-2.5,16.4-10.6,32.4-23.5,42.4c-1.1,0.9-2.1,1.7-3.2,2.3c-1.6,1-3.2,2-4.9,2.9c-2.2,1.5-3.7,3.1-4.7,4.7
						c-0.5,5.8-0.7,11.5-0.6,17.3c-0.1,0.3-0.3,0.6-0.4,0.9c-0.8,2.7-1,5.8-1.2,8.6c-0.6,6.4,0.4,12.9,2.4,19c0.9,2.7,2.1,5.4,3.5,8
						c0.7,2.9,1.4,5.9,2.2,8.8c0.1,0.1,0.1,0.3,0.2,0.4c0.1,0.6,0.3,1.1,0.4,1.7c0.1,0.4,0.3,0.8,0.4,1.2c0.2,0.7,0.5,1.5,0.8,2.2
						c2.7,5.8,6.8,11.1,11.2,15.8c1.2,1.2,2.5,2.4,3.8,3.6c2.6,3.7,5.8,7.2,9.4,10c3.2,2.5,6.9,4.1,10.7,5c0.4,0.1,0.7,0.2,1.1,0.2
						c3.2,1.9,5.6,3.2,6.8,3.9c0.6,0,1.2,0,1.8-0.1c0.6-0.4,1.2-0.7,1.8-1c2.2-1.3,4.6-2.3,6.9-3.6c5.2-2.8,10.2-6.1,14.7-9.9
						c0.6-0.5,1.2-1,1.8-1.6c2.2-2.7,4.4-5.7,6.4-8.8c-0.5,1.5-1.1,3-1.7,4.4c0.7-0.7,1.4-1.4,2-2.2c0.6-1.7,1.2-3.5,1.6-5.2
						c2.4-4.1,4.7-8.4,6.8-12.8c0.7-2.6,1.3-5.2,1.9-7.8c-0.3,1.7-0.6,3.3-0.9,5c-1.1,5.3-3.2,10.5-5.7,15.3
						c-0.7,1.4-1.5,2.8-2.4,4.2c1.3-1.6,2.6-3.1,3.8-4.8c1.9-3.8,3.4-7.8,4.5-11.9c0.8-2.9,1.3-5.8,1.7-8.7c0.2-1.5,0.2-3.1,0.3-4.7
						c2.1-4.5,3.8-9.2,5-13.9C265.5,617,265.8,611.7,265.7,606.5z M164.9,630.8c-2-5.2-2.9-10.7-3-16.2c0-2.7,0.2-5.4,0.6-8
						c0.1-0.4,0.1-1,0.2-1.6c0.4,9.6,1.5,19.2,3.4,28.6C165.6,632.7,165.2,631.8,164.9,630.8z M173.7,655c-0.8-1.4-1.5-2.8-2.1-4.2
						c1.2,2,2.6,3.8,4,5.6c2.2,3.4,4.5,6.5,6.9,9.3c0.4,0.7,0.8,1.5,1.2,2.2C179.8,664.1,176.5,659.7,173.7,655z M186.5,670.4
						c-0.3-0.4-0.6-0.8-0.9-1.3c1,1.1,2,2.1,3.1,3.1C187.9,671.7,187.2,671,186.5,670.4z M195.3,679.9c-2.2-1.7-4.3-3.9-6.1-6.1
						c1.5,1.1,2.9,2.1,4.5,3.1c0.8,0.8,1.6,1.7,2.4,2.5c2,1.8,4.4,3.3,6.9,4.4c0.5,0.3,1,0.6,1.4,0.9
						C201.1,683.7,198,682.1,195.3,679.9z M263,622.7c-0.8,3.2-1.9,6.3-3.2,9.4c2-10,3.4-20,4-30.1c0.1-0.9,0.1-1.9,0.1-2.8
						c0.4,2.4,0.7,4.8,0.8,7.3C264.9,611.9,264.4,617.4,263,622.7z"/>
					<path class="st0" d="M260.1,637.4c-0.3,1.6-0.7,3.1-1.1,4.7c0.8-2,1.6-4.1,2.3-6.1c1-4.2,1.8-8.5,2.4-12.8
						c0.8-5.4,1.1-10.8,1.1-16.2C264,617.3,262.3,627.4,260.1,637.4z"/>
					<path class="st0" d="M264.8,587.5c0.3,3.4,0.6,6.9,0.8,10.3c0.5,8.9,0.4,17.8-1,26.6c-0.1,0.7-0.2,1.4-0.3,2
						c0.9-3.3,1.6-6.5,2.1-9.4C267.8,608.8,268.5,596.6,264.8,587.5z"/>
				</g>
				<g>
					<defs>
						<path id="SVGID_1_" d="M265.7,606.5c-0.1-4.1-0.8-8.1-1.6-12.1c0-0.6,0-1.3,0-1.9c-0.2-2.6-0.5-5.2-0.7-7.8
							c-0.6-1-1.2-2-2-2.9c-3.9-2-7.6-4.3-11-7c-6.3-4.9-11.7-10.8-16.1-17.4c-4.2-6.3-9.6-13.4-9.9-21.4c0-0.4,0.2-0.6,0.4-0.7
							c-0.5-1.3-0.8-2.7-1.2-4h-24.1c-2.5,16.4-10.6,32.4-23.5,42.4c-1.1,0.9-2.1,1.7-3.2,2.3c-1.6,1-3.2,2-4.9,2.9
							c-2.2,1.5-3.7,3.1-4.7,4.7c-0.5,5.8-0.7,11.5-0.6,17.3c-0.1,0.3-0.3,0.6-0.4,0.9c-0.8,2.7-1,5.8-1.2,8.6
							c-0.6,6.4,0.4,12.9,2.4,19c0.9,2.7,2.1,5.4,3.5,8c0.7,2.9,1.4,5.9,2.2,8.8c0.1,0.1,0.1,0.3,0.2,0.4c0.1,0.6,0.3,1.1,0.4,1.7
							c0.1,0.4,0.3,0.8,0.4,1.2c0.2,0.7,0.5,1.5,0.8,2.2c2.7,5.8,6.8,11.1,11.2,15.8c1.2,1.2,2.5,2.4,3.8,3.6
							c2.6,3.7,5.8,7.2,9.4,10c3.2,2.5,6.9,4.1,10.7,5c0.4,0.1,0.7,0.2,1.1,0.2c3.2,1.9,5.6,3.2,6.8,3.9c0.6,0,1.2,0,1.8-0.1
							c0.6-0.4,1.2-0.7,1.8-1c2.2-1.3,4.6-2.3,6.9-3.6c5.2-2.8,10.2-6.1,14.7-9.9c0.6-0.5,1.2-1,1.8-1.6c2.2-2.7,4.4-5.7,6.4-8.8
							c-0.5,1.5-1.1,3-1.7,4.4c0.7-0.7,1.4-1.4,2-2.2c0.6-1.7,1.2-3.5,1.6-5.2c2.4-4.1,4.7-8.4,6.8-12.8c0.7-2.6,1.3-5.2,1.9-7.8
							c-0.3,1.7-0.6,3.3-0.9,5c-1.1,5.3-3.2,10.5-5.7,15.3c-0.7,1.4-1.5,2.8-2.4,4.2c1.3-1.6,2.6-3.1,3.8-4.8
							c1.9-3.8,3.4-7.8,4.5-11.9c0.8-2.9,1.3-5.8,1.7-8.7c0.2-1.5,0.2-3.1,0.3-4.7c2.1-4.5,3.8-9.2,5-13.9
							C265.5,617,265.8,611.7,265.7,606.5z M164.9,630.8c-2-5.2-2.9-10.7-3-16.2c0-2.7,0.2-5.4,0.6-8c0.1-0.4,0.1-1,0.2-1.6
							c0.4,9.6,1.5,19.2,3.4,28.6C165.6,632.7,165.2,631.8,164.9,630.8z M173.7,655c-0.8-1.4-1.5-2.8-2.1-4.2c1.2,2,2.6,3.8,4,5.6
							c2.2,3.4,4.5,6.5,6.9,9.3c0.4,0.7,0.8,1.5,1.2,2.2C179.8,664.1,176.5,659.7,173.7,655z M186.5,670.4c-0.3-0.4-0.6-0.8-0.9-1.3
							c1,1.1,2,2.1,3.1,3.1C187.9,671.7,187.2,671,186.5,670.4z M195.3,679.9c-2.2-1.7-4.3-3.9-6.1-6.1c1.5,1.1,2.9,2.1,4.5,3.1
							c0.8,0.8,1.6,1.7,2.4,2.5c2,1.8,4.4,3.3,6.9,4.4c0.5,0.3,1,0.6,1.4,0.9C201.1,683.7,198,682.1,195.3,679.9z M263,622.7
							c-0.8,3.2-1.9,6.3-3.2,9.4c2-10,3.4-20,4-30.1c0.1-0.9,0.1-1.9,0.1-2.8c0.4,2.4,0.7,4.8,0.8,7.3
							C264.9,611.9,264.4,617.4,263,622.7z"/>
					</defs>
					<use xlink:href="#SVGID_1_"  style="overflow:visible;fill:#101820;"/>
					<clipPath id="SVGID_2_">
						<use xlink:href="#SVGID_1_"  style="overflow:visible;"/>
					</clipPath>
				</g>
			</g>
			<path class="st0" d="M198.5,554c0,0.7-0.1,1.3-0.1,2c-0.3,3.5-0.7,7.5,1,10.7c0.1,0.2,0.1,0.4,0.1,0.6c1,2.1,2.6,4.3,5,7.2
				c0.2,0.3,0.5,0.6,0.7,0.8c-2.5-5.1-4.5-10.5-5.8-16.2C199.1,557.4,198.7,555.7,198.5,554z"/>
			<g>
				<g>
					<path class="st0" d="M224.5,518.4c1.1,4.8,2.1,9.7,2.9,14.5c-0.2-6.7-0.7-13.2-1.9-19.4c-0.6,0.4-1.2,0.8-1.8,1.2
						C224,516,224.3,517.2,224.5,518.4z"/>
					<path class="st0" d="M200.6,520.7c0.4-2.1,0.9-4.1,1.5-6.2c-0.4-0.3-0.7-0.6-0.9-0.9c-0.8,3.9-1.2,7.9-1.5,12
						C199.9,524,200.2,522.4,200.6,520.7z"/>
					<path class="st0" d="M228.4,555.8c-0.7-6.6-0.7-13.6-0.9-20.5c-0.1-0.9-0.2-1.7-0.4-2.6c-0.9-5.3-1.9-10.7-3.2-15.9
						c-0.1-0.6-0.3-1.2-0.5-1.8c-8.3,4.8-15.9,3.2-20,0.6c-0.3,1.3-0.7,2.6-1,4c-1.7,7.6-2.9,15.3-3.5,23.1
						c-0.1,2.9-0.2,5.8-0.4,8.7c0.3,2.6,0.8,5.2,1.4,7.7c0.2,0.9,0.4,1.9,0.7,2.8c-0.3-0.2-0.8-0.1-0.8,0.4
						c0.1,8.1,6.8,19.9,15.2,19.3c-0.3,0.3,0,1,0.5,0.8c6.2-2.1,9.6-7.7,11.3-13.8c0.6-2.2,0.8-4.4,0.9-6.6
						C228.3,559.5,228.5,557.4,228.4,555.8z M200.9,562.5c1.3,4.7,3.1,9.1,5.2,13.3C203,572,201,566.7,200.9,562.5z M220.3,578.3
						c-0.1,0-0.1,0-0.2,0.1c-4.2,3.1-8.2,2.4-11.4-0.1c7.8,4.8,14.4-3.7,17.6-12.1C225.6,570.7,223.6,575.3,220.3,578.3z"/>
				</g>
				<g>
					<defs>
						<path id="SVGID_3_" d="M228.4,555.8c-0.7-6.6-0.7-13.6-0.9-20.5c-0.1-0.9-0.2-1.7-0.4-2.6c-0.9-5.3-1.9-10.7-3.2-15.9
							c-0.1-0.6-0.3-1.2-0.5-1.8c-8.3,4.8-15.9,3.2-20,0.6c-0.3,1.3-0.7,2.6-1,4c-1.7,7.6-2.9,15.3-3.5,23.1
							c-0.1,2.9-0.2,5.8-0.4,8.7c0.3,2.6,0.8,5.2,1.4,7.7c0.2,0.9,0.4,1.9,0.7,2.8c-0.3-0.2-0.8-0.1-0.8,0.4
							c0.1,8.1,6.8,19.9,15.2,19.3c-0.3,0.3,0,1,0.5,0.8c6.2-2.1,9.6-7.7,11.3-13.8c0.6-2.2,0.8-4.4,0.9-6.6
							C228.3,559.5,228.5,557.4,228.4,555.8z M200.9,562.5c1.3,4.7,3.1,9.1,5.2,13.3C203,572,201,566.7,200.9,562.5z M220.3,578.3
							c-0.1,0-0.1,0-0.2,0.1c-4.2,3.1-8.2,2.4-11.4-0.1c7.8,4.8,14.4-3.7,17.6-12.1C225.6,570.7,223.6,575.3,220.3,578.3z"/>
					</defs>
					<use xlink:href="#SVGID_3_"  style="overflow:visible;fill:#101820;"/>
					<clipPath id="SVGID_4_">
						<use xlink:href="#SVGID_3_"  style="overflow:visible;"/>
					</clipPath>
				</g>
			</g>
		</g>
	</g>
</g>
</svg>
